<svg width="32" height="32" viewBox="0 0 32 32" fill="none" xmlns="http://www.w3.org/2000/svg">
<g clip-path="url(#clip0_13_1148)">
<path d="M23.8358 18.0094C20.5575 18.3426 18 21.1412 18 24.5047C18.0013 26.2278 18.6866 27.8799 19.9055 29.0979C21.1243 30.3158 22.7769 31 24.5 31C28.0904 31 31 28.0927 31 24.5047C30.9984 22.7818 30.3129 21.13 29.0941 19.9123C27.8753 18.6946 26.2229 18.0105 24.5 18.0105C24.2755 18.0105 24.0533 17.9857 23.8358 18.0094Z" fill="#0A0A0A"/>
<path d="M23.9378 19.0081C21.1633 19.2893 19 21.658 19 24.5047C19.0013 25.9626 19.5813 27.3603 20.6126 28.3908C21.6439 29.4212 23.0422 30 24.5 30C27.5372 30 30 27.5396 30 24.5047C29.999 23.0466 29.4191 21.6485 28.3878 20.6178C27.3565 19.5871 25.9581 19.0081 24.5 19.0081C24.3106 19.0081 24.1223 18.9898 23.9378 19.0081Z" fill="#435ECE"/>
<path d="M24.4582 28.336C24.9164 28.336 25.288 27.9645 25.288 27.5062C25.288 27.0479 24.9164 26.6765 24.4582 26.6765C23.9999 26.6765 23.6284 27.0479 23.6284 27.5062C23.6284 27.9645 23.9999 28.336 24.4582 28.336Z" fill="#0A0A0A"/>
<path d="M22.9079 22.1189L22.4982 21.1037C22.9781 19.8078 26.1224 19.481 26.8912 21.0646C27.6554 22.6368 25.662 23.7405 25.3686 24.3655C24.9588 25.2379 25.1729 25.4393 25.1729 25.4393H24.0013C24.0013 25.4393 23.5098 24.3539 25.3099 22.6862C26.2939 21.7736 24.6446 19.9793 22.9079 22.1189Z" fill="#0A0A0A"/>
<path d="M12.8924 24.2736C12.3802 24.0068 11.8769 23.793 11.4092 23.667C9.50459 23.1541 5.57823 24.6063 5.57823 24.6063L4.0419 4.00398L21.128 15.5394C21.128 15.5394 18.0177 18.2382 17.5217 20.1379C17.3976 20.6129 17.3294 21.165 17.3013 21.7521C14.9766 22.1231 13.3861 23.4549 12.8924 24.2736Z" fill="#00995D" stroke="#0A0A0A" stroke-linecap="round" stroke-linejoin="round"/>
</g>
<defs>
<clipPath id="clip0_13_1148">
<rect width="32" height="32" fill="white"/>
</clipPath>
</defs>
</svg>
