<svg width="32" height="32" viewBox="0 0 32 32" fill="none" xmlns="http://www.w3.org/2000/svg">
<path d="M15.9991 7.45786C11.2384 7.45786 7.35376 11.3168 7.35376 16.0459C7.35376 20.7751 11.2384 24.634 15.9991 24.634C17.455 24.634 18.7702 24.1909 19.9621 23.5599L20.2849 23.8828C20.1738 23.9896 20.0855 24.1175 20.0252 24.2588C19.965 24.4001 19.9339 24.5521 19.9339 24.7056C19.9339 24.8591 19.965 25.011 20.0252 25.1524C20.0855 25.2937 20.1738 25.4215 20.2849 25.5283L24.8957 30.1086C25.0032 30.2191 25.132 30.3069 25.2743 30.3669C25.4167 30.4269 25.5698 30.4579 25.7245 30.4579C25.8792 30.4579 26.0322 30.4269 26.1746 30.3669C26.317 30.3069 26.4458 30.2191 26.5533 30.1086L29.0028 27.6753C29.1138 27.5686 29.2021 27.4407 29.2624 27.2994C29.3227 27.158 29.3538 27.0061 29.3538 26.8526C29.3538 26.6991 29.3227 26.5472 29.2624 26.4058C29.2021 26.2645 29.1138 26.1366 29.0028 26.0299L24.392 21.4495C24.1762 21.2377 23.885 21.1188 23.5816 21.1188C23.2782 21.1188 22.987 21.2377 22.7712 21.4495L22.6272 21.3064C23.8133 19.843 24.6444 18.0739 24.6444 16.0459C24.6444 11.3168 20.7598 7.45786 15.9991 7.45786Z" fill="#0A0A0A"/>
<path d="M15.9726 8.45786C13.9519 8.45786 12.0141 9.25402 10.5853 10.6712C9.15645 12.0884 8.35376 14.0105 8.35376 16.0147C8.35376 18.019 9.15645 19.9411 10.5853 21.3583C12.0141 22.7755 13.9519 23.5716 15.9726 23.5716C17.569 23.5716 19.0342 23.0601 20.2579 22.2265L22.0161 23.9704L21.1745 24.8075L25.863 29.4579L28.3538 26.9862L23.6653 22.3358L22.8213 23.1357L21.1745 21.4999C22.6514 20.1222 23.5914 18.1853 23.5914 16.0147C23.5914 15.0224 23.3943 14.0397 23.0115 13.1228C22.6286 12.206 22.0674 11.3729 21.3599 10.6712C20.6524 9.96949 19.8125 9.41286 18.8882 9.03309C17.9638 8.65332 16.9731 8.45786 15.9726 8.45786ZM15.9726 9.60418C17.6824 9.60418 19.3221 10.2779 20.5311 11.477C21.7401 12.6762 22.4193 14.3026 22.4193 15.9985C22.4193 17.6943 21.7401 19.3207 20.5311 20.5199C19.3221 21.7191 17.6824 22.3928 15.9726 22.3928C14.2628 22.3928 12.6231 21.7191 11.4141 20.5199C10.2051 19.3207 9.52589 17.6943 9.52589 15.9985C9.52589 14.3026 10.2051 12.6762 11.4141 11.477C12.6231 10.2779 14.2628 9.60418 15.9726 9.60418Z" fill="#00995D"/>
<path d="M12.5 15.5H19.5V16.5H12.5V15.5Z" fill="#00995D"/>
</svg>
