<?xml version="1.0" encoding="UTF-8" standalone="no"?>
<svg
   id="svg4153"
   viewBox="0 0 32.000004 32"
   version="1.1"
   sodipodi:docname="plasmavault_error.svg"
   inkscape:version="1.4.4 (dcaf3e7d9e, 2026-05-05)"
   xmlns:inkscape="http://www.inkscape.org/namespaces/inkscape"
   xmlns:sodipodi="http://sodipodi.sourceforge.net/DTD/sodipodi-0.dtd"
   xmlns="http://www.w3.org/2000/svg"
   xmlns:svg="http://www.w3.org/2000/svg">
  <defs
     id="defs1" />
  <sodipodi:namedview
     id="namedview1"
     pagecolor="#505050"
     bordercolor="#eeeeee"
     borderopacity="1"
     inkscape:showpageshadow="0"
     inkscape:pageopacity="0"
     inkscape:pagecheckerboard="0"
     inkscape:deskcolor="#505050"
     inkscape:zoom="5.4248348"
     inkscape:cx="28.572298"
     inkscape:cy="9.1247018"
     inkscape:window-width="1366"
     inkscape:window-height="700"
     inkscape:window-x="0"
     inkscape:window-y="0"
     inkscape:window-maximized="1"
     inkscape:current-layer="svg4153" />
  <style
     type="text/css"
     id="current-color-scheme">
        .ColorScheme-NegativeText {
            color:#da4453;
        }
    </style>
  <g
     id="22-22-plasmavault_error"
     transform="translate(49 4.999999)">
    <path
       id="rect4148"
       d="m0 0h22v22h-22z"
       fill="none" />
    <path
       id="path829"
       d="m3 3.000001v16h16v-14h-6.992l-2-2-.008.008v-.008zm1 1h5.586l1.004 1.004-4.02 3.996h-2.57zm10 5a3 3 0 0 1 3 3.000001v.999999h1v5h-8v-5h1v-.999999a3 3 0 0 1 3-3.000001zm0 1.000001a2 2 0 0 0 -2 2v.999999h4v-.999999a2 2 0 0 0 -2-2z"
       class="ColorScheme-NegativeText"
       fill="currentColor"
       style="fill:#ff0000;fill-opacity:1" />
  </g>
  <g
     id="plasmavault_error">
    <path
       id="rect4230"
       d="m0-1e-6h32.000004v32h-32.000004z"
       fill="none" />
    <path
       id="path875"
       d="m4 4v24h24v-21h-11l-3-3zm1 1h8.585938l2.207031 2.2070312-5.792969 5.7929688h-5zm16 8a4 4 0 0 1 4 4v3h2v7h-12v-7h2v-3a4 4 0 0 1 4-4zm0 1a3.0003099 3 0 0 0-3 3v3h6v-3a3.0003099 3 0 0 0-3-3z"
       class="ColorScheme-NegativeText"
       fill="currentColor"
       style="fill:#ff0000;fill-opacity:1" />
  </g>
</svg>
