<svg width="32" height="32" viewBox="0 0 32 32" fill="none" xmlns="http://www.w3.org/2000/svg">
<g clip-path="url(#clip0_13_1324)">
<path d="M24.5 31C28.0899 31 31 28.0899 31 24.5C31 20.9101 28.0899 18 24.5 18C20.9101 18 18 20.9101 18 24.5C18 28.0899 20.9101 31 24.5 31Z" fill="#0A0A0A"/>
<path d="M19.855 20.9279C19.3995 21.5205 19.0547 22.2197 18.8494 22.9859C18.0131 26.1068 19.8651 29.3144 22.9859 30.1506C25.1083 30.7193 27.2592 30.0469 28.6887 28.5748L28.2529 27.3037C27.6924 28.054 26.9196 28.6187 26.0346 28.9248C25.1495 29.2309 24.193 29.2642 23.2887 29.0205C22.344 28.7689 21.5015 28.2284 20.8789 27.4746C20.2563 26.7207 19.8847 25.7913 19.8161 24.816L20.9582 24.1566L19.855 20.9279Z" fill="#00995D"/>
<path d="M29.1448 28.0727C29.6004 27.4801 29.9452 26.7809 30.1507 26.0141C30.9867 22.8938 29.135 19.6856 26.0141 18.8493C23.8917 18.2806 21.7406 18.9537 20.3113 20.4252L20.7464 21.6967C21.3069 20.9463 22.0798 20.3813 22.965 20.0752C23.8502 19.769 24.8069 19.7357 25.7113 19.9795C26.6561 20.2312 27.4986 20.7718 28.1212 21.5257C28.7438 22.2797 29.1153 23.2093 29.1837 24.1846L28.0418 24.8434L29.1448 28.0727Z" fill="#00995D"/>
<path d="M12.8924 24.2736C12.3802 24.0068 11.8769 23.793 11.4092 23.667C9.50461 23.1541 5.57825 24.6063 5.57825 24.6063L4.04192 4.00398L21.1281 15.5394C21.1281 15.5394 18.0177 18.2382 17.5217 20.1379C17.3976 20.6129 17.3295 21.165 17.3013 21.7521C14.9766 22.1231 13.3861 23.4549 12.8924 24.2736Z" fill="#00995D" stroke="#0A0A0A" stroke-linecap="round" stroke-linejoin="round"/>
</g>
<defs>
<clipPath id="clip0_13_1324">
<rect width="32" height="32" fill="white"/>
</clipPath>
</defs>
</svg>
